# xmcd
#
# Track frame offsets:
#  150
#  18112
#  34694
#  49995
#  66960
#  88196
#  108408
#  125798
#  141732
#  162264
#  185164
#
# Disc length: 2787 seconds
#
# Revision: 0
# Processed by: cddbd v1.4PL0 Copyright (c) Steve Scherf et al.
# Submitted via: AltoMP3_Maker 3.0
#
DISCID=a50ae10b
DTITLE=Gary Gibson Group - Gary Gibson Group
DYEAR=1900
DGENRE=
TTITLE0=Whatcha Done to Me
TTITLE1=Love Has Gone Cold
TTITLE2=Blues is Alright With Me
TTITLE3=Play the Blues for You
TTITLE4=Gotta Give a Little Bit
TTITLE5=2 Bits, 4 Bits
TTITLE6=One and Only
TTITLE7=Walked Away
TTITLE8=Where Are We Now
TTITLE9=Just Take Em Back
TTITLE10=I've Got a High
EXTD=
EXTT0=
EXTT1=
EXTT2=
EXTT3=
EXTT4=
EXTT5=
EXTT6=
EXTT7=
EXTT8=
EXTT9=
EXTT10=
PLAYORDER=
